<svg xmlns="http://www.w3.org/2000/svg" viewBox="0 0 64 64" fill="none">
  <defs>
    <linearGradient id="wL" x1="0%" y1="0%" x2="100%" y2="100%">
      <stop offset="0%" stop-color="#2a3fa0"/>
      <stop offset="100%" stop-color="#1a237e"/>
    </linearGradient>
    <linearGradient id="wR" x1="100%" y1="0%" x2="0%" y2="100%">
      <stop offset="0%" stop-color="#2a3fa0"/>
      <stop offset="100%" stop-color="#1a237e"/>
    </linearGradient>
  </defs>

  <!-- LEFT WING -->
  <path d="M30 30 C25 27 18 21 11 12 C15 22 20 28 26 32 Z" fill="url(#wL)" opacity="0.95"/>
  <path d="M29 32 C23 31 16 28 9 20 C13 28 20 33 26 35 Z" fill="url(#wL)" opacity="0.9"/>
  <path d="M28 35 C22 36 15 36 8 31 C13 37 21 39 27 37 Z" fill="url(#wL)" opacity="0.85"/>
  <path d="M29 38 C23 41 16 43 9 40 C14 44 22 44 27 41 Z" fill="url(#wL)" opacity="0.75"/>

  <!-- RIGHT WING -->
  <path d="M34 30 C39 27 46 21 53 12 C49 22 44 28 38 32 Z" fill="url(#wR)" opacity="0.95"/>
  <path d="M35 32 C41 31 48 28 55 20 C51 28 44 33 38 35 Z" fill="url(#wR)" opacity="0.9"/>
  <path d="M36 35 C42 36 49 36 56 31 C51 37 43 39 37 37 Z" fill="url(#wR)" opacity="0.85"/>
  <path d="M35 38 C41 41 48 43 55 40 C50 44 42 44 37 41 Z" fill="url(#wR)" opacity="0.75"/>

  <!-- Center B letter mark -->
  <text x="32" y="37" text-anchor="middle" font-family="Arial Narrow, Arial, sans-serif" font-size="14" font-weight="900" letter-spacing="1" fill="#1a237e">B</text>
</svg>
